<svg xmlns="http://www.w3.org/2000/svg" viewBox="0 0 24 24" fill="none">
  <rect width="24" height="24" rx="6" fill="#000000"/>
  <path fill="#ffffff" d="M21.55 10.005a5.28 5.28 0 0 0-.453-4.33 5.34 5.34 0 0 0-5.744-2.562A5.28 5.28 0 0 0 11.38 1.4a5.34 5.34 0 0 0-5.093 3.695 5.28 5.28 0 0 0-3.52 2.566 5.34 5.34 0 0 0 .657 6.267 5.28 5.28 0 0 0 .453 4.33 5.34 5.34 0 0 0 5.744 2.562A5.28 5.28 0 0 0 13.59 22.6a5.34 5.34 0 0 0 5.096-3.697 5.28 5.28 0 0 0 3.518-2.566 5.34 5.34 0 0 0-.655-6.332ZM13.59 21.13a3.96 3.96 0 0 1-2.544-.928l.126-.071 4.227-2.44a.69.69 0 0 0 .349-.603v-5.964l1.787 1.032a.064.064 0 0 1 .035.049v4.934a3.977 3.977 0 0 1-3.98 3.99Zm-8.555-3.653a3.96 3.96 0 0 1-.474-2.673l.127.076 4.226 2.44a.691.691 0 0 0 .696 0l5.16-2.979v2.063a.065.065 0 0 1-.026.056L10.51 18.9a3.976 3.976 0 0 1-5.476-1.424Zm-1.112-9.25a3.96 3.96 0 0 1 2.068-1.746l-.001.146v4.878a.69.69 0 0 0 .348.602l5.158 2.977-1.787 1.032a.065.065 0 0 1-.062.006L5.9 13.194a3.978 3.978 0 0 1-1.977-5.967Zm14.67 3.42-5.158-2.979 1.787-1.03a.064.064 0 0 1 .062-.007l3.74 2.159a3.977 3.977 0 0 1-.616 7.175V12.25a.69.69 0 0 0-.346-.602h-.001Zm1.778-2.683-.127-.076-4.224-2.44a.693.693 0 0 0-.697 0L10.163 9.42V7.357a.066.066 0 0 1 .026-.056l3.739-2.158a3.977 3.977 0 0 1 5.91 3.48l.001.34Zm-11.19 3.673-1.788-1.031a.065.065 0 0 1-.035-.05V6.623a3.977 3.977 0 0 1 6.522-3.054l-.126.071-4.226 2.44a.69.69 0 0 0-.349.602l-.001 5.96Zm.972-2.096 2.297-1.326 2.298 1.325v2.649l-2.298 1.325-2.297-1.325V10.54Z"/>
</svg>
